<?xml version="1.0" standalone="no"?>
<!DOCTYPE svg PUBLIC "-//W3C//DTD SVG 20010904//EN"
 "http://www.w3.org/TR/2001/REC-SVG-20010904/DTD/svg10.dtd">
<svg version="1.0" xmlns="http://www.w3.org/2000/svg"
 width="500.000000pt" height="333.000000pt" viewBox="0 0 500.000000 333.000000"
 preserveAspectRatio="xMidYMid meet">
<metadata>
Created by potrace 1.15, written by Peter Selinger 2001-2017
</metadata>
<g transform="translate(0.000000,333.000000) scale(0.100000,-0.100000)"
fill="#000000" stroke="none">
<path d="M2145 2290 l-130 -100 -175 1 -174 1 -51 -161 -50 -161 -295 0 -295
-1 -93 -192 c-226 -468 -279 -588 -274 -615 3 -15 7 -21 9 -14 3 7 22 12 49
12 l44 0 0 -94 c0 -103 -2 -106 -72 -106 -14 0 -28 -6 -30 -12 -3 -9 -15 -4
-36 14 -28 24 -35 25 -62 15 l-30 -11 0 -113 c0 -62 -3 -113 -8 -113 -4 0 -6
51 -4 114 l2 115 -27 -3 c-40 -5 -47 3 -25 28 24 26 38 66 23 66 -6 0 -11 5
-11 11 0 5 5 7 11 3 8 -5 8 -1 0 14 -6 11 -8 29 -4 39 6 16 5 16 -10 5 -8 -8
-13 -20 -10 -28 9 -24 -6 -64 -22 -58 -12 5 -12 9 1 29 19 29 4 68 -23 58 -13
-5 -15 -3 -8 13 4 10 8 29 9 41 1 12 4 25 9 29 4 4 7 17 6 28 0 18 -2 17 -10
-6 -15 -39 -35 -42 -49 -7 -7 16 -16 26 -21 23 -13 -8 -11 -58 3 -72 8 -8 8
-15 -2 -26 -17 -21 -32 -10 -30 22 5 65 2 71 -28 63 -22 -6 -27 -13 -27 -38 0
-34 -15 -56 -22 -35 -4 10 -9 7 -20 -7 -15 -22 -36 -20 -27 3 3 7 -2 16 -10
19 -13 5 -13 1 -5 -21 5 -15 12 -33 14 -39 7 -20 35 -3 35 20 0 28 6 19 14
-22 5 -29 4 -32 -9 -21 -21 17 -32 4 -17 -20 7 -11 12 -26 12 -34 0 -17 -33
-31 -38 -17 -2 6 -8 11 -13 11 -6 0 -8 -4 -5 -8 3 -5 1 -25 -5 -44 -8 -31 -15
-37 -53 -47 -25 -6 -52 -8 -60 -5 -9 3 -16 1 -16 -5 0 -6 17 -11 40 -11 22 0
40 -4 40 -10 0 -5 7 -10 15 -10 8 0 15 5 15 10 0 6 14 10 30 10 l31 0 -22 -23
c-19 -18 -34 -22 -83 -22 l-61 0 -3 -100 c-1 -62 1 -95 7 -86 6 9 10 -3 12
-38 3 -36 0 -51 -8 -51 -10 0 -13 -30 -13 -115 l0 -116 168 3 167 3 160 69
c231 99 215 93 225 76 5 -8 6 -18 4 -22 -3 -5 2 -11 11 -14 12 -5 13 -9 4 -20
-9 -11 -8 -14 4 -14 18 0 22 5 31 42 4 20 2 28 -11 31 -10 3 4 5 30 4 l48 -2
-5 -77 c-4 -57 -2 -78 7 -79 7 0 101 -1 211 -3 l199 -2 43 34 c24 18 44 37 44
42 0 6 24 10 54 10 37 0 56 4 59 14 9 23 -4 26 -35 10 -46 -24 -45 -9 1 23
l40 28 1 285 0 285 -157 -1 c-87 0 -230 3 -318 6 -148 6 -190 4 -157 -7 9 -4
12 -69 12 -279 0 -232 -2 -274 -14 -274 -8 0 -17 4 -20 9 -3 5 -27 8 -52 8
-34 0 -49 4 -56 17 -7 12 -19 16 -41 14 -27 -3 -33 1 -35 21 -6 37 7 74 21 63
17 -13 57 -22 57 -13 0 5 -14 12 -32 17 -46 13 -48 34 -4 34 l36 0 0 70 c0 70
0 70 -25 64 -21 -5 -25 -3 -25 15 0 17 5 21 23 17 22 -4 25 0 38 77 l13 81 12
-44 c12 -46 13 -46 18 23 1 6 4 15 9 18 4 3 10 29 14 57 3 28 8 51 12 50 45
-5 701 4 701 10 0 5 -174 12 -387 15 -214 4 -397 9 -408 11 -11 3 -33 6 -50 7
-56 5 289 16 533 18 208 1 242 3 242 16 0 16 222 19 1445 20 l480 0 230 178
c127 97 246 190 265 205 78 64 63 67 215 -48 118 -90 155 -127 155 -158 0 -3
-5 -1 -12 6 -20 20 -32 13 -13 -8 10 -11 13 -20 7 -20 -7 0 -17 9 -24 20 -7
11 -17 20 -21 20 -5 0 -56 36 -114 80 -57 44 -108 82 -113 83 -9 2 -330 -243
-330 -252 0 -3 113 -5 252 -3 178 2 256 6 266 15 13 10 14 8 7 -13 -9 -31 -21
-39 -46 -33 -11 3 -19 0 -19 -7 0 -7 7 -10 15 -6 19 7 19 -4 0 -18 -9 -7 -12
-19 -9 -33 9 -32 33 -29 31 3 -1 15 4 29 11 32 11 3 12 0 3 -17 -9 -16 -9 -21
2 -21 7 0 13 -9 13 -20 0 -11 -4 -20 -9 -20 -4 0 -5 -5 -1 -11 4 -7 1 -10 -7
-7 -8 3 -13 11 -11 17 1 6 -5 11 -14 11 -13 0 -15 -7 -10 -31 5 -25 4 -28 -8
-17 -7 8 -26 13 -42 12 -16 -1 -49 -2 -73 -3 -45 -1 -52 -6 -16 -13 11 -1 23
-7 27 -12 4 -6 14 -4 24 5 14 11 16 11 10 0 -7 -10 -3 -12 13 -6 12 4 21 2 21
-4 0 -6 -4 -11 -10 -11 -5 0 -7 -7 -4 -15 5 -11 10 -13 19 -5 9 8 15 8 20 0 3
-5 0 -10 -7 -11 -7 0 -4 -5 7 -10 16 -7 13 -8 -12 -5 -18 3 -35 1 -38 -4 -3
-6 3 -10 14 -10 12 0 21 -5 21 -11 0 -6 9 -23 20 -38 17 -25 18 -30 4 -49 -14
-21 -46 -21 -41 0 1 6 -4 13 -10 15 -7 3 -13 0 -13 -6 0 -14 40 -40 55 -35 8
4 11 -6 9 -33 -1 -27 4 -45 22 -66 13 -16 22 -33 19 -38 -4 -5 1 -6 9 -3 14 6
21 -5 17 -28 0 -4 6 -5 14 -2 8 4 15 1 15 -5 0 -6 9 -11 20 -11 27 0 25 18 -3
29 -28 11 -56 41 -37 41 7 0 10 6 7 14 -3 8 1 17 9 20 9 3 12 1 9 -4 -3 -6 -1
-10 5 -10 6 0 9 -4 5 -10 -8 -13 26 -50 47 -50 9 0 23 -6 30 -13 7 -8 20 -16
28 -20 11 -4 10 -6 -4 -6 -15 -1 -16 -4 -6 -16 9 -10 9 -15 1 -15 -6 0 -11
-17 -11 -37 0 -21 -7 -74 -15 -118 -8 -44 -14 -104 -15 -134 0 -49 -2 -53 -13
-36 -12 16 -28 18 -140 17 -70 0 -127 3 -127 8 0 4 10 6 22 2 13 -3 19 -1 15
5 -4 7 -57 11 -134 12 -69 1 -133 6 -141 10 -25 14 111 22 316 18 l192 -3 0
65 c0 51 -3 62 -12 53 -15 -15 -413 -17 -403 -3 3 5 1 12 -5 16 -6 4 -8 10 -5
15 3 4 -2 14 -11 21 -14 11 -16 10 -14 -6 6 -56 7 -55 -100 -55 -55 0 -100 3
-101 8 0 4 -1 53 -2 110 -1 90 -4 102 -19 102 -16 0 -18 -11 -18 -109 0 -63
-4 -112 -10 -116 -12 -7 -12 0 -10 127 l2 98 -26 0 c-28 0 -47 -20 -19 -21 10
0 13 -3 6 -6 -20 -7 -16 -43 5 -43 16 -1 16 -2 -2 -15 -17 -13 -17 -16 -2 -46
9 -18 13 -35 9 -38 -13 -10 -14 -40 -3 -61 6 -11 8 -20 5 -20 -7 0 -50 43 -51
52 -1 5 -3 14 -4 21 -1 6 -5 1 -9 -13 l-7 -25 -163 -3 c-105 -2 -168 1 -174 7
-8 8 18 11 84 11 l96 0 -5 103 c-3 59 -9 105 -16 109 -8 6 -7 8 2 8 9 0 12 32
12 125 l0 125 -101 0 -100 0 3 -140 3 -140 -90 0 -90 0 3 -89 c3 -74 6 -91 20
-94 15 -4 15 -5 0 -6 -10 0 -18 -6 -18 -12 0 -6 9 -9 20 -6 11 3 20 1 20 -4 0
-5 -9 -9 -19 -9 -10 0 -21 -6 -24 -14 -7 -18 3 -59 17 -68 8 -5 7 -8 -1 -8 -7
0 -13 -4 -13 -10 0 -5 9 -10 20 -10 23 0 26 -10 8 -28 -10 -10 -5 -11 21 -6
25 5 32 4 27 -4 -10 -17 10 -15 45 4 18 9 38 12 47 8 10 -4 20 -6 24 -6 4 1
14 -14 22 -33 l15 -34 475 2 c353 1 467 -1 444 -9 l-33 -11 45 -7 c115 -18
-10 -26 -432 -26 -292 0 -448 -3 -448 -10 0 -5 8 -11 18 -12 9 -1 425 -2 924
-2 886 -1 908 -1 908 18 0 18 -6 19 -112 11 -62 -4 -122 -7 -133 -7 -11 1
-150 2 -310 2 -159 1 -281 5 -270 10 11 4 57 8 103 9 45 1 95 7 110 13 27 12
27 12 -18 18 -25 4 107 8 293 8 266 2 338 5 335 15 -3 8 -44 14 -139 18 -74 3
-149 10 -168 17 -35 12 -70 4 -35 -8 11 -4 -6 -7 -38 -6 -55 1 -74 9 -45 19 6
2 -13 2 -43 -1 -30 -3 -57 -8 -60 -12 -3 -5 -56 -7 -117 -7 -122 2 -115 -1
-113 55 1 12 51 12 74 0 11 -6 49 -10 85 -10 36 1 71 -4 78 -9 18 -16 66 -2
59 16 -6 17 -5 17 82 19 64 2 79 -7 40 -24 -18 -8 -15 -8 12 -3 19 4 53 7 75
5 22 -1 56 -2 75 -2 60 -1 101 -10 94 -21 -3 -6 -12 -8 -20 -5 -8 3 -14 1 -14
-4 0 -17 46 -11 73 10 14 11 30 20 36 20 8 0 11 121 11 411 l0 412 -35 -6
c-25 -4 -35 -2 -35 7 0 8 -10 21 -22 29 -20 14 -21 16 -5 16 10 1 15 6 12 11
-3 6 1 17 9 26 9 8 16 14 17 12 0 -2 3 -21 5 -43 6 -47 7 -49 33 -40 20 6 21
13 21 151 0 82 -4 144 -9 144 -6 0 -6 12 0 32 11 40 12 98 1 98 -4 0 -59 -20
-122 -45 -63 -25 -123 -45 -133 -45 -10 0 -15 -5 -12 -11 4 -6 22 -8 45 -4 71
12 80 -1 80 -118 0 -132 9 -209 24 -204 7 3 20 -1 31 -9 18 -13 18 -14 -6 -16
-44 -2 -87 -14 -264 -71 -74 -24 -120 -43 -107 -45 14 -2 22 -10 22 -23 0 -11
7 -19 18 -19 14 0 15 2 2 10 -8 5 -11 12 -7 16 10 11 186 43 235 44 49 0 56
-17 10 -24 -18 -3 -73 -12 -123 -20 -55 -8 -76 -14 -53 -15 44 -1 62 -20 21
-22 -15 -1 -21 -3 -12 -6 22 -5 24 -23 28 -241 3 -163 1 -185 -15 -203 -9 -10
-12 -19 -6 -19 6 0 12 5 14 10 2 7 16 8 43 1 37 -8 37 -9 10 -10 -16 -1 -48
-4 -69 -8 -32 -5 -38 -4 -31 8 7 11 6 12 -6 4 -19 -14 -105 -10 -101 4 1 6 -2
11 -8 11 -5 0 -10 -7 -10 -15 0 -17 -31 -19 -95 -6 -38 8 -36 9 25 10 53 1 62
4 46 13 -11 6 -31 11 -45 12 -21 1 -26 6 -27 29 -2 43 -14 45 -15 1 0 -21 -3
-33 -6 -26 -2 6 -12 12 -21 13 -11 0 -12 2 -4 6 6 2 12 14 12 24 0 14 13 26
40 38 37 16 38 18 22 35 -16 16 -16 17 0 11 13 -5 15 -2 11 14 -6 24 -6 24
121 25 60 1 91 5 93 13 5 15 -58 27 -89 17 -35 -12 -42 -11 -56 8 -16 22 -36
24 -28 2 3 -8 2 -12 -4 -9 -16 10 -59 -6 -63 -23 -2 -10 -6 1 -8 22 -4 32 -2
40 13 44 10 2 18 9 18 14 0 6 7 8 15 4 13 -5 20 5 16 27 0 4 17 7 39 7 29 0
42 5 50 20 12 23 30 27 30 6 0 -21 26 -27 54 -12 l25 13 -26 21 c-29 23 -49
29 -38 12 8 -13 -1 -13 -27 1 -17 9 -25 6 -47 -15 -34 -33 -49 -33 -61 -1 -10
25 -30 35 -30 14 0 -11 -10 -10 -70 6 -19 5 -22 4 -10 -4 10 -7 11 -11 3 -11
-19 0 -16 -17 4 -24 9 -4 20 -1 24 5 8 13 39 5 39 -10 0 -13 -45 -25 -59 -16
-6 3 -11 -1 -11 -10 0 -9 -5 -13 -10 -10 -6 4 -9 14 -8 23 2 11 -3 16 -14 16
-10 -1 -18 4 -18 12 0 8 5 14 11 14 5 0 7 5 4 10 -3 6 1 17 9 26 9 8 16 11 16
5 0 -6 5 -11 10 -11 13 0 9 52 -4 61 -5 4 1 12 13 18 12 7 19 16 16 22 -4 5 3
9 14 9 11 0 23 5 27 11 5 9 -1 10 -20 5 -22 -5 -26 -3 -26 14 0 16 9 21 42 26
l41 7 -28 22 c-17 15 -25 27 -20 35 5 9 4 11 -4 6 -17 -11 -41 12 -41 40 0 33
18 30 77 -13 47 -35 51 -40 46 -73 -5 -35 -4 -35 10 -10 18 33 9 50 -53 95
-58 43 -63 51 -141 239 -49 120 -55 141 -43 153 27 28 12 63 -16 38 -15 -14
-22 -4 -76 126 l-59 141 -347 -2 -347 -1 -12 61 -12 60 -173 0 c-96 0 -173 3
-172 8 1 4 -2 47 -6 95 l-8 88 -231 -2 c-128 -2 -238 0 -245 5 -10 6 -12 19
-7 42 5 29 3 34 -13 34 -15 0 -18 -5 -14 -25 2 -14 2 -25 -2 -25 -3 0 -53 36
-110 80 -58 44 -111 80 -118 80 -7 0 -71 -45 -143 -100z m81 26 c-3 -23 -28
-47 -43 -42 -8 3 -12 2 -9 -3 8 -13 -21 -34 -35 -25 -7 4 -9 3 -6 -3 4 -6 -18
-30 -48 -53 -30 -23 -55 -45 -55 -47 0 -3 15 6 33 19 17 14 63 47 100 74 38
27 77 55 88 63 10 7 19 11 19 8 0 -6 -684 -529 -786 -602 -10 -7 -20 -4 -34
11 l-21 21 310 232 c171 128 315 230 320 227 5 -4 13 -1 17 5 5 8 2 10 -7 5
-8 -4 -4 1 9 11 30 25 147 113 149 113 1 0 0 -6 -1 -14z m108 -26 c42 -31 56
-37 56 -20 0 6 -6 10 -13 10 -8 0 -21 8 -30 18 -16 18 -16 19 5 17 13 -2 22
-8 20 -15 -2 -7 3 -10 11 -7 18 7 79 -41 71 -55 -4 -7 -2 -8 4 -4 9 5 162 -89
162 -99 0 -2 -11 -10 -24 -18 -24 -16 -27 -14 -171 93 -80 61 -143 110 -138
110 4 0 26 -14 47 -30z m7 -112 c0 -13 3 -17 6 -10 14 35 23 1 23 -88 l0 -100
-80 0 -80 0 0 106 c0 60 4 103 9 100 5 -4 20 -2 33 3 12 6 38 10 56 10 27 1
32 -3 33 -21z m469 -177 c47 -34 143 -102 213 -152 127 -91 128 -92 110 -113
-10 -11 -19 -22 -20 -24 -1 -2 -23 13 -50 33 -26 20 -133 99 -237 175 l-189
139 -26 -19 c-14 -11 -69 -54 -121 -96 -52 -41 -146 -114 -208 -161 -107 -82
-113 -85 -127 -67 -8 10 -15 21 -15 24 0 3 91 75 201 160 111 85 222 171 248
191 l46 36 45 -32 c25 -18 83 -60 130 -94z m-560 -153 c-12 -10 -38 -18 -56
-18 -21 0 -37 -6 -40 -14 -5 -13 -24 -22 -63 -31 -7 -2 -18 -8 -24 -14 -8 -8
-2 -11 21 -11 30 0 32 -2 38 -49 5 -39 10 -48 23 -44 10 2 23 -3 30 -11 12
-14 10 -16 -8 -16 -11 0 -21 -4 -21 -8 0 -5 13 -7 28 -4 31 4 67 -22 56 -40
-4 -6 -1 -9 7 -6 9 3 15 22 17 51 l3 47 42 0 c23 0 37 4 30 8 -19 12 -1 29 42
37 33 6 37 9 20 15 -17 7 -17 9 -2 9 9 1 17 6 17 11 0 6 20 10 44 10 28 0 46
5 49 14 9 23 -2 26 -64 19 -41 -4 -59 -2 -59 6 0 6 3 10 8 10 4 -1 22 -1 40 0
39 1 44 21 5 21 -26 0 -26 1 -10 18 15 15 43 17 206 20 164 3 194 1 227 -15
l39 -17 -42 -4 c-68 -5 -50 -22 23 -22 46 0 63 -3 58 -11 -5 -8 -30 -10 -80
-6 -41 4 -76 3 -79 -2 -8 -14 4 -18 79 -26 38 -3 73 -8 76 -10 4 -2 22 -7 41
-10 18 -3 36 -8 39 -11 3 -3 5 -99 5 -212 l0 -207 -377 -3 c-335 -2 -377 -1
-380 13 -3 14 -43 16 -350 15 l-348 0 0 82 c0 46 3 120 7 166 6 83 6 83 31 77
19 -5 23 -3 19 9 -4 11 4 16 32 21 21 3 50 13 65 21 16 7 32 11 37 8 5 -3 9 2
9 10 0 14 20 16 140 16 112 0 140 3 140 14 0 16 -58 30 -74 17 -6 -4 -36 -7
-66 -5 -30 2 -89 4 -130 4 -41 0 -82 4 -90 10 -12 8 -12 10 5 8 32 -2 132 4
115 7 -8 2 -32 7 -54 10 l-38 6 23 17 c20 14 61 18 269 22 135 3 251 3 259 1
10 -3 8 -9 -9 -23z m1699 -423 c16 -8 31 -11 35 -8 3 4 6 -3 6 -14 0 -11 3
-41 6 -67 l7 -46 -92 0 -92 0 3 63 c2 34 7 61 11 59 4 -1 14 3 21 10 18 19 63
20 95 3z m806 -493 c0 -29 5 -38 20 -41 26 -4 37 -22 23 -38 -11 -13 3 -19 15
-6 4 3 22 8 39 10 23 2 28 0 19 -6 -8 -5 -14 -23 -13 -41 0 -23 -3 -30 -13
-26 -8 3 -17 0 -21 -6 -4 -7 -3 -8 4 -4 7 4 10 2 6 -7 -3 -8 -18 -13 -39 -12
-23 0 -35 -4 -35 -13 0 -7 4 -11 9 -8 11 7 21 -17 21 -50 0 -13 5 -24 11 -24
7 0 9 -10 7 -24 -3 -17 -1 -23 8 -19 15 5 34 -26 34 -56 0 -12 6 -21 13 -22 6
0 3 -4 -8 -9 -17 -7 -15 -9 13 -9 22 -1 32 -6 32 -16 0 -14 -10 -15 -62 -9
-35 3 -69 12 -77 20 -11 10 -15 61 -18 240 -2 125 0 224 4 220 5 -4 8 -24 8
-44z m-4648 -199 c0 -10 -5 -21 -11 -25 -8 -5 -7 -8 2 -8 8 0 12 -17 12 -50 0
-50 0 -50 28 -44 15 3 34 5 42 5 8 -1 27 -1 42 -1 26 0 28 -2 28 -42 l0 -43
-46 4 c-34 2 -49 -1 -55 -12 -6 -10 -25 -15 -59 -15 l-50 -1 0 96 c0 86 2 95
20 100 11 3 18 9 15 13 -8 13 6 40 19 40 7 0 13 -8 13 -17z m424 -123 c24 1
53 1 64 0 l20 -1 -20 -9 c-15 -6 -16 -9 -4 -9 11 -1 16 -12 17 -42 2 -55 -5
-63 -35 -44 -26 17 -79 13 -68 -5 3 -6 1 -10 -4 -10 -6 0 -11 -4 -11 -9 0 -9
20 -11 103 -12 9 0 15 -4 12 -10 -4 -5 -21 -9 -38 -9 -18 0 -46 -4 -64 -9
l-32 -9 4 36 c1 21 -1 42 -6 48 -6 7 -8 18 -7 25 2 11 -12 13 -64 11 l-68 -3
0 30 c0 34 3 35 86 31 23 -1 45 4 49 10 6 9 9 9 15 0 4 -7 26 -11 51 -10z"/>
<path d="M1680 1090 c-155 -5 -165 -6 -168 -25 -2 -15 -1 -17 6 -6 7 9 15 10
27 4 10 -6 34 -7 59 -2 59 12 1424 9 1428 -3 2 -6 36 -5 91 2 90 12 167 10
202 -5 19 -8 19 -8 3 9 -10 9 -18 21 -18 25 0 8 -1365 9 -1630 1z"/>
<path d="M3550 981 c0 -54 3 -100 6 -104 3 -3 14 2 25 11 11 9 30 17 42 17 20
0 23 6 28 65 3 36 6 61 7 55 1 -5 7 -3 12 5 8 12 10 10 10 -10 1 -22 2 -23 11
-7 7 13 19 16 45 13 20 -3 45 -1 57 4 17 7 11 9 -27 9 -51 1 -54 15 -6 24 14
2 -6 6 -45 7 -38 2 -91 4 -117 5 l-48 3 0 -97z"/>
<path d="M1928 1002 l-228 -2 0 -285 c0 -247 -2 -285 -15 -285 -11 0 -15 13
-16 53 -1 28 -1 56 0 61 1 5 -4 13 -11 17 -9 6 -10 9 -1 9 8 0 12 18 11 55
l-2 55 -81 0 -80 0 4 -47 c2 -27 8 -54 15 -62 8 -12 8 -13 -1 -7 -15 8 -16 0
-13 -67 2 -42 -1 -48 -16 -45 -11 2 -20 -4 -22 -14 -2 -11 3 -18 13 -18 9 0
14 -4 10 -9 -3 -5 -1 -12 5 -16 5 -3 10 -15 10 -26 0 -17 7 -19 80 -19 l80 0
0 35 c0 24 5 35 15 35 16 0 20 -32 15 -117 l-2 -43 89 -1 c59 -1 80 -4 63 -9
-19 -6 -11 -8 30 -8 30 1 45 3 33 5 -13 2 -23 8 -23 13 0 4 -9 10 -20 13 -11
3 -20 10 -20 16 0 13 111 13 150 1 25 -8 25 -8 -4 -9 -16 -1 -26 -4 -23 -8 10
-10 857 -16 858 -6 0 4 2 20 4 35 2 18 -2 31 -13 38 -10 5 -12 10 -4 10 6 0
12 4 12 8 0 5 -24 8 -54 8 -30 -1 -52 2 -49 7 2 4 22 7 43 7 74 0 69 -22 70
316 l0 304 -98 0 c-53 1 -207 2 -342 3 -135 1 -347 1 -472 -1z m2 -103 c5 -7
7 -17 4 -21 -3 -4 10 -5 28 -2 25 4 29 3 18 -5 -10 -7 -11 -11 -2 -11 6 0 12
-10 12 -22 0 -33 13 -49 30 -38 9 5 19 5 27 -2 21 -17 15 -28 -17 -28 -16 0
-30 -4 -30 -10 0 -5 11 -10 25 -10 28 0 30 -3 14 -33 l-12 -21 -9 24 c-7 19
-11 21 -18 11 -20 -34 0 -41 114 -43 l111 -2 -135 -6 -135 -6 145 -4 145 -4
-122 -3 c-75 -2 -123 -8 -123 -14 0 -12 525 -8 536 4 4 4 -26 8 -67 9 l-74 2
75 6 75 6 -115 4 -115 4 95 6 c66 4 79 7 45 9 -27 1 -59 6 -70 11 -18 9 -18 9
5 8 73 -3 85 6 15 12 -54 4 -82 3 -87 -4 -5 -7 -8 -4 -8 7 0 14 10 17 58 18
91 1 163 7 169 13 4 3 -23 6 -58 6 -49 1 -60 3 -46 11 11 7 16 17 12 29 -4 13
0 20 15 25 12 4 19 13 17 20 -4 9 5 11 34 9 26 -2 39 1 39 9 0 9 3 8 9 -1 7
-11 9 -11 14 2 4 11 1 16 -10 16 -22 0 -6 15 26 25 16 5 21 4 17 -4 -4 -6 0
-11 9 -11 9 0 13 5 10 10 -4 6 11 10 38 10 33 0 47 -5 51 -17 4 -9 2 -20 -5
-23 -8 -5 -8 -9 0 -14 6 -4 9 -25 8 -48 -2 -30 -8 -43 -22 -48 -18 -6 -17 -7
3 -12 22 -6 26 -28 9 -55 -5 -8 -3 -13 5 -14 7 0 4 -4 -7 -9 l-20 -9 20 -2
c11 -2 -18 -6 -65 -9 l-85 -6 83 -2 c73 -2 83 -4 81 -19 -4 -41 2 -53 24 -54
24 -1 19 -3 -28 -14 -27 -7 -28 -8 -10 -15 12 -5 -24 -8 -90 -8 -79 1 -96 3
-60 7 71 9 -508 25 -597 17 -43 -4 -83 -3 -98 3 -23 9 -21 10 20 12 39 2 41 3
12 6 -27 4 -33 8 -29 23 3 13 -1 20 -17 23 -11 2 7 5 41 6 79 1 96 21 18 21
-37 0 -62 5 -71 15 -14 13 -13 15 7 15 20 0 21 2 7 13 -21 16 -30 45 -16 53 7
4 7 9 -1 14 -13 7 -23 114 -13 138 7 18 100 11 112 -9z"/>
<path d="M3771 823 c4 -21 -2 -32 -15 -27 -8 3 -23 -4 -33 -15 -9 -12 -25 -21
-35 -21 -17 0 -24 -21 -18 -59 1 -9 -5 -12 -19 -8 -12 3 -19 1 -15 -4 3 -5 12
-9 20 -9 11 0 13 -6 9 -20 -5 -17 -2 -20 24 -20 16 0 33 -5 36 -11 4 -6 13 -8
21 -5 8 3 14 1 14 -4 0 -15 27 -12 33 4 3 7 28 16 58 20 36 5 61 15 77 32 14
13 20 24 13 24 -6 0 -11 7 -11 15 0 26 -31 65 -51 65 -11 0 -19 7 -19 16 0 12
-4 14 -12 7 -15 -12 -60 -2 -58 12 1 5 -3 11 -10 13 -6 2 -10 0 -9 -5z"/>
<path d="M2155 222 c-100 -2 -136 -6 -125 -13 10 -7 -33 -8 -142 -4 -99 5
-158 4 -158 -2 0 -12 126 -23 255 -23 62 0 85 -3 75 -10 -20 -13 5 -14 29 -1
10 6 52 11 95 12 61 2 151 12 246 30 3 0 -4 4 -15 9 -11 5 -42 8 -70 7 -27 -1
-113 -3 -190 -5z"/>
<path d="M843 129 c-7 -7 -13 -17 -13 -21 0 -11 595 -6 606 5 4 4 4 10 0 15
-4 4 -137 8 -294 10 -222 3 -290 1 -299 -9z"/>
<path d="M2167 132 c-53 -2 -85 -7 -82 -12 4 -6 -1 -10 -9 -10 -9 0 -16 -4
-16 -9 0 -20 31 -30 109 -35 94 -5 122 -16 41 -16 -40 0 -51 -3 -43 -11 6 -6
9 -18 6 -25 -4 -12 24 -14 163 -13 102 0 161 4 149 9 -11 5 -29 12 -40 16 -18
6 -17 8 10 14 22 6 25 8 10 10 -15 2 -12 4 10 10 l30 8 -27 1 c-58 2 -34 20
34 25 40 3 111 9 158 14 l85 8 -65 7 c-72 8 -385 14 -523 9z"/>
</g>
</svg>
