<?xml version="1.0" standalone="no"?>
<!DOCTYPE svg PUBLIC "-//W3C//DTD SVG 20010904//EN"
 "http://www.w3.org/TR/2001/REC-SVG-20010904/DTD/svg10.dtd">
<svg version="1.0" xmlns="http://www.w3.org/2000/svg"
 width="750.000000pt" height="500.000000pt" viewBox="0 0 750.000000 500.000000"
 preserveAspectRatio="xMidYMid meet">
<metadata>
Created by potrace 1.15, written by Peter Selinger 2001-2017
</metadata>
<g transform="translate(0.000000,500.000000) scale(0.100000,-0.100000)"
fill="#000000" stroke="none">
<path d="M0 4859 c0 -109 3 -139 12 -133 9 5 9 2 -1 -9 -11 -15 -11 -17 2 -17
8 0 18 12 22 28 l7 27 15 -29 c17 -32 7 -46 -34 -46 l-23 0 1 -212 c0 -152 4
-215 12 -220 9 -6 9 -8 0 -8 -10 0 -13 -103 -13 -480 0 -431 2 -480 16 -480 9
0 14 -6 11 -12 -2 -7 -9 -12 -16 -11 -8 2 -11 -266 -11 -987 0 -656 3 -990 10
-990 13 0 13 -137 1 -145 -6 -3 -10 -230 -11 -570 l-1 -565 866 0 c570 0 865
3 865 10 0 6 9 10 20 10 11 0 20 -4 20 -10 0 -6 92 -10 255 -10 211 0 255 2
255 14 0 17 27 29 35 16 4 -6 3 -14 0 -20 -4 -7 85 -10 259 -10 l266 0 0 25
c0 18 5 25 18 25 26 0 33 -10 21 -31 -9 -18 8 -19 606 -19 540 0 615 2 615 15
0 8 -4 15 -9 15 -5 0 -7 10 -3 22 3 14 2 19 -6 14 -8 -5 -12 1 -13 16 -1 16
-4 12 -8 -12 -4 -19 -8 79 -9 219 -2 229 -1 253 14 247 8 -3 22 -6 30 -6 12 0
14 -43 14 -265 l0 -265 372 0 c310 0 369 2 354 13 -23 17 -17 52 9 52 16 0 20
-7 20 -32 l0 -33 237 0 c235 0 238 0 226 20 -10 16 -10 23 4 36 14 15 19 15
33 4 11 -9 14 -22 10 -37 l-5 -23 181 0 c159 0 180 2 169 15 -7 9 -9 22 -5 32
5 10 7 27 6 38 -3 21 -31 46 -43 39 -5 -3 -8 0 -8 5 0 6 -4 11 -10 11 -5 0
-10 -7 -10 -15 0 -16 -36 -20 -56 -7 -6 4 -20 23 -30 42 -14 26 -27 36 -49 39
-29 3 -65 17 -75 30 -10 12 -50 31 -65 31 -8 0 -15 3 -15 8 0 7 -47 32 -62 32
-4 0 -17 9 -28 20 -18 18 -20 31 -18 103 l3 82 33 -2 c26 -1 32 2 32 18 0 16
7 19 43 19 42 0 43 -1 39 -29 -3 -24 2 -32 35 -51 21 -13 56 -40 79 -61 23
-20 50 -42 62 -48 18 -9 19 -8 15 10 -5 17 -2 20 13 17 13 -2 19 -12 19 -33 0
-24 12 -39 67 -83 l67 -54 0 -75 c0 -42 4 -80 10 -86 7 -7 7 -16 0 -29 -8 -15
-6 -18 16 -18 25 0 25 1 25 80 0 44 3 80 7 80 19 0 173 -131 173 -147 0 -10
158 -13 755 -13 l755 0 0 1034 0 1035 -22 4 c-23 4 -23 4 -2 12 14 4 22 15 22
31 0 23 -3 24 -75 24 -65 0 -74 -2 -63 -15 8 -10 24 -13 53 -9 29 4 38 2 28
-5 -12 -8 -12 -12 -2 -24 17 -21 -2 -31 -45 -23 -32 6 -34 5 -34 -20 0 -20 4
-25 16 -20 8 3 22 -1 30 -9 14 -13 12 -15 -11 -15 -22 0 -25 -3 -20 -20 5 -17
2 -20 -20 -20 -18 0 -29 6 -32 20 -3 11 -10 20 -15 20 -6 0 -5 6 2 14 9 12 7
17 -9 28 -12 7 -21 22 -21 33 0 15 2 17 9 6 6 -9 14 -11 26 -4 12 7 14 13 6
17 -16 10 -14 26 4 26 10 0 15 10 15 29 0 22 -6 30 -25 35 -26 7 -34 30 -14
42 6 3 9 15 6 25 -6 21 8 26 16 7 3 -8 6 -6 6 5 1 10 -6 17 -16 17 -14 0 -15
2 -4 9 9 6 10 11 2 15 -8 5 -8 13 1 29 l12 22 7 -25 c6 -23 7 -23 8 8 1 17 -4
32 -9 32 -6 0 -9 6 -8 13 2 6 -3 11 -11 9 -9 -2 -11 3 -7 13 3 8 9 21 12 29 3
9 -3 17 -15 21 -25 8 -27 18 -6 35 13 11 13 15 3 22 -8 6 -4 7 12 2 55 -15 68
-24 78 -52 7 -20 19 -31 38 -35 16 -4 39 -9 52 -13 22 -6 22 -6 22 111 l0 118
-95 -7 c-52 -3 -95 -3 -95 2 0 23 29 32 107 32 l83 0 0 1165 0 1165 -2334 0
-2333 0 1 -30 c1 -16 5 -30 10 -30 4 0 6 -7 2 -15 -3 -8 2 -18 10 -23 9 -5 17
-21 17 -35 2 -19 7 -27 21 -27 27 0 17 -6 -21 -13 -23 -5 -32 -3 -30 6 1 7 -7
11 -20 10 -13 -2 -38 13 -65 37 -23 22 -39 40 -34 40 6 0 1 7 -10 15 -18 14
-17 14 12 9 19 -4 34 -1 39 5 11 18 -12 38 -46 39 -17 0 -44 4 -61 7 -21 5
-28 4 -24 -4 4 -6 12 -9 17 -6 5 4 9 -1 9 -9 0 -18 -16 -21 -25 -6 -9 14 -45
12 -45 -2 0 -7 -7 -2 -16 10 -14 21 -23 23 -80 20 -35 -1 -64 -6 -64 -10 0 -5
7 -8 15 -8 9 0 15 -9 15 -21 0 -15 -4 -19 -16 -15 -9 3 -20 6 -25 6 -5 0 -14
11 -19 25 l-10 25 -156 0 c-119 0 -155 -3 -152 -12 3 -7 -1 -18 -8 -25 -17
-18 -29 -16 -14 2 22 26 0 35 -91 35 -92 0 -107 -7 -64 -30 13 -7 22 -16 20
-21 -9 -13 -46 3 -62 28 -12 17 -21 22 -37 17 -28 -9 -29 -10 -20 -26 9 -13
10 -18 13 -39 0 -6 7 -9 15 -6 9 4 16 -3 21 -20 7 -31 -3 -44 -16 -20 -6 9
-18 17 -27 17 -12 0 -13 3 -5 8 15 9 7 21 -32 48 -32 22 -57 22 -48 -2 3 -8
-1 -14 -11 -14 -9 0 -16 6 -16 13 0 20 -36 50 -52 44 -11 -4 -11 -6 0 -6 7 -1
10 -6 7 -11 -3 -6 -17 -7 -31 -4 -15 4 -24 2 -24 -6 0 -7 -7 -10 -15 -6 -10 3
-15 -1 -15 -12 0 -13 -4 -12 -20 8 -17 23 -18 26 -2 32 9 4 -8 7 -39 7 -56 1
-111 -16 -106 -33 2 -5 13 -13 25 -17 19 -7 24 -4 32 16 12 31 35 33 37 3 1
-13 7 -24 13 -26 5 -2 8 -8 4 -13 -3 -5 2 -9 10 -9 20 0 29 -16 21 -41 -6 -17
-9 -19 -16 -8 -6 11 -11 11 -21 1 -17 -17 -28 -15 -28 6 0 28 -32 52 -58 45
-13 -3 -22 -1 -22 6 0 6 -5 11 -10 11 -7 0 -7 -6 -1 -19 9 -16 6 -20 -15 -24
-13 -2 -41 2 -62 9 -20 7 -34 13 -30 14 4 0 3 13 -2 29 -8 28 -7 29 20 26 16
-2 34 2 40 10 10 12 -34 14 -290 15 -295 0 -302 0 -297 -19 3 -13 1 -18 -8
-15 -7 3 -13 -1 -12 -8 0 -7 -1 -26 -1 -41 -2 -27 -3 -27 -19 -11 -10 9 -32
23 -51 31 -18 7 -30 18 -27 22 3 5 2 16 -1 24 -8 23 -344 23 -344 1 0 -8 -7
-14 -15 -14 -8 0 -15 7 -15 15 0 13 -21 15 -130 15 l-130 0 0 -141z m2959 -86
c3 -2 -11 -1 -30 3 -19 3 -29 2 -23 -3 6 -4 13 -16 17 -25 4 -10 17 -18 30
-18 20 0 91 -63 81 -72 -2 -2 5 -4 14 -5 30 -3 116 -21 135 -28 9 -4 17 -17
17 -29 0 -17 -2 -18 -10 -6 -8 13 -10 12 -11 -5 -1 -11 -2 -28 -1 -37 1 -10
-3 -18 -10 -18 -6 0 -4 -8 5 -18 21 -23 21 -36 2 -52 -17 -14 -10 -89 9 -102
6 -4 7 -8 2 -8 -4 0 -2 -10 7 -23 13 -20 21 -77 10 -77 -2 0 -13 19 -23 43
-10 23 -23 42 -27 43 -33 3 -61 19 -78 44 -11 16 -22 27 -26 24 -4 -2 -9 1
-11 8 -2 6 -10 8 -16 4 -17 -10 -15 -26 3 -26 8 0 15 -7 15 -15 0 -17 41 -99
52 -103 4 -2 10 -19 14 -39 4 -19 12 -37 18 -39 12 -4 20 -114 9 -114 -11 0
-53 52 -49 59 3 4 -7 17 -23 29 l-28 21 -2 -52 c-2 -93 -4 -117 -12 -117 -7 0
-22 39 -20 53 1 4 -10 7 -24 7 -23 0 -29 10 -23 38 0 4 9 6 20 4 10 -2 18 -1
18 2 0 9 -50 56 -59 56 -5 0 -11 7 -15 15 -3 8 -17 15 -31 15 -18 0 -31 9 -43
29 -9 17 -25 32 -34 35 -10 2 -18 13 -18 24 0 11 -6 22 -12 25 -7 2 -10 8 -6
12 5 5 18 0 30 -11 19 -17 21 -17 15 -1 -4 9 -3 17 2 17 5 0 11 -9 14 -19 3
-14 11 -18 26 -14 12 3 21 12 21 20 0 8 4 12 8 9 10 -6 72 51 72 66 0 5 -8 7
-19 3 -12 -4 -21 0 -25 12 -5 13 -9 14 -15 5 -4 -7 -15 -10 -25 -6 -14 5 -17
14 -12 37 4 17 12 35 19 39 7 5 2 8 -14 8 -24 0 -26 3 -24 37 2 47 -18 106
-31 93 -7 -7 -16 -5 -29 3 -17 13 -17 14 4 20 11 3 21 2 21 -2 0 -4 6 -8 13
-8 6 -1 29 -4 50 -7 42 -6 87 10 87 31 0 7 5 13 11 13 5 0 7 5 3 11 -5 8 -9 8
-14 -1 -4 -6 -19 -18 -33 -25 -23 -12 -27 -12 -27 0 0 7 -15 17 -32 21 -18 3
-43 13 -55 21 -20 13 -21 17 -8 30 8 8 18 25 21 37 5 20 10 23 45 19 27 -3 39
-1 39 8 0 8 8 5 23 -7 12 -10 24 -20 26 -21z m-2424 -1 c6 -4 16 -18 23 -31
13 -22 12 -23 -5 -19 -16 4 -18 0 -15 -29 4 -29 22 -49 22 -22 0 5 5 7 11 4 5
-4 9 -17 8 -28 -1 -12 2 -30 6 -41 5 -12 3 -21 -6 -27 -11 -7 -11 -9 4 -9 9 0
17 -4 17 -9 0 -5 3 -23 7 -41 6 -32 5 -33 -23 -26 -21 5 -25 4 -14 -4 13 -9
13 -11 0 -20 -20 -13 -25 -13 -40 5 -7 8 -18 15 -26 15 -16 0 -25 14 -29 46
-1 13 -2 24 -1 24 1 0 16 -4 34 -9 31 -9 33 -8 30 12 -2 13 -13 24 -28 28 -16
4 -19 7 -7 8 21 1 23 17 2 25 -21 8 -19 30 3 22 10 -4 7 2 -8 14 -19 15 -22
22 -12 28 8 5 15 27 17 48 1 21 3 40 4 42 2 4 16 2 26 -6z m1877 -39 c6 -13
18 -23 27 -23 12 0 12 -3 3 -12 -17 -17 -15 -28 7 -28 10 0 22 7 25 16 4 10
13 13 27 9 14 -5 25 -2 30 6 6 10 9 8 9 -8 0 -15 5 -21 13 -17 8 3 20 -3 28
-12 12 -16 12 -17 -3 -11 -20 7 -25 -9 -5 -16 6 -3 2 -6 -10 -6 -15 -1 -21 4
-17 12 3 8 -2 19 -10 26 -22 19 -29 -4 -11 -39 11 -22 13 -35 6 -49 -8 -14 -5
-25 13 -46 17 -20 25 -24 29 -14 4 10 6 10 6 -2 1 -9 -6 -20 -15 -23 -8 -3
-12 -2 -9 4 3 6 2 10 -3 10 -6 0 -12 -7 -16 -15 -9 -24 -39 -19 -31 5 5 15 3
18 -9 14 -9 -3 -16 -9 -16 -14 0 -4 -14 -7 -32 -8 -18 0 -43 -6 -56 -13 -17
-10 -25 -10 -30 -2 -4 6 -16 11 -27 10 -13 -1 -26 10 -40 35 -22 42 -39 48
-55 18 -8 -16 -8 -20 4 -20 25 0 30 -21 6 -27 -17 -5 -20 -11 -15 -32 4 -17 3
-21 -3 -12 -7 9 -12 10 -16 2 -4 -6 -15 -11 -24 -10 -11 0 -12 2 -4 6 6 2 9
10 6 15 -4 7 -2 8 4 4 19 -11 14 5 -5 19 -15 11 -15 13 5 19 25 8 29 38 7 56
-11 9 -12 17 -5 31 7 13 7 24 -2 38 -13 21 -52 25 -44 5 5 -14 -17 -37 -27
-28 -9 10 22 51 43 57 13 3 24 -3 35 -19 8 -13 21 -24 27 -24 6 0 8 3 5 7 -4
3 -2 12 4 20 9 11 7 13 -12 11 -15 -2 -23 2 -21 10 1 6 -6 12 -15 13 -10 0 -4
5 12 10 38 12 79 3 72 -15 -8 -21 13 -38 30 -25 12 11 18 1 14 -23 0 -5 4 -8
9 -8 14 0 12 -30 -4 -59 -12 -21 -12 -27 1 -39 18 -18 33 -1 26 28 -3 10 0 27
7 37 11 17 11 17 6 0 -3 -11 -2 -15 4 -12 15 9 12 48 -5 71 -17 23 -19 34 -5
34 6 0 10 -7 10 -15 0 -23 31 -35 48 -19 12 12 11 19 -6 47 -10 17 -25 31 -32
29 -20 -5 -42 7 -35 18 5 8 12 7 23 -2 14 -11 15 -10 9 6 -5 12 -3 22 5 27 8
5 14 3 16 -4 2 -7 8 -22 14 -34z m1093 -273 c-13 -6 -15 -9 -5 -9 13 -1 13 -2
0 -11 -11 -8 -9 -9 10 -5 21 5 36 -4 90 -56 36 -33 64 -66 62 -73 -2 -6 -1 -8
3 -4 7 7 13 3 65 -44 16 -16 35 -28 40 -28 6 0 18 -16 26 -35 11 -27 20 -35
40 -35 14 0 35 -10 48 -23 13 -13 28 -21 34 -19 7 2 15 -3 18 -12 3 -9 15 -16
25 -16 10 0 19 -5 19 -10 0 -6 3 -9 8 -8 10 3 84 -33 99 -48 7 -7 26 -15 43
-19 22 -5 30 -12 30 -28 0 -16 3 -18 12 -9 14 14 68 16 68 2 0 -5 18 -10 40
-10 l40 0 0 -40 c0 -36 -2 -40 -26 -40 -14 0 -22 -4 -19 -10 3 -5 33 -8 68 -5
l62 4 -60 -9 c-33 -6 -141 -9 -240 -8 l-180 3 -3 34 c-2 23 2 37 12 43 10 5
16 22 16 41 0 38 -14 65 -24 48 -4 -6 -27 -11 -52 -11 l-45 0 3 -37 c2 -31 7
-39 26 -41 20 -3 23 -8 20 -40 l-3 -37 -52 -3 c-32 -2 -53 1 -53 7 0 6 -5 11
-12 11 -19 0 -47 31 -42 45 3 8 -4 16 -17 20 -12 4 -18 10 -13 14 15 11 13 81
-2 81 -8 0 -14 9 -14 20 0 20 -11 26 -24 13 -10 -10 -46 -11 -52 -1 -3 5 6 27
20 48 29 43 23 54 -20 40 -56 -19 -62 -22 -74 -46 -13 -24 -30 -32 -30 -14 0
5 8 13 18 19 16 9 16 10 0 16 -15 6 -12 13 22 46 45 45 50 59 19 59 -19 0 -19
1 -4 16 21 21 14 27 -35 29 -66 3 -70 4 -70 23 0 11 9 27 20 37 16 14 17 20 8
27 -10 6 -10 8 0 8 14 0 16 26 3 35 -6 3 -19 -4 -30 -16 l-20 -21 6 21 c3 12
13 27 22 34 10 7 20 20 24 30 4 10 16 17 29 16 22 0 22 -1 3 -9z m2506 -437
c10 -10 10 -18 -1 -38 -11 -21 -12 -30 -2 -45 7 -11 12 -36 12 -55 l0 -35
-327 1 c-181 0 -322 3 -314 6 10 4 5 10 -15 19 -16 7 -22 13 -13 13 9 1 32 16
52 35 21 19 38 29 40 22 3 -8 10 -8 26 2 11 6 28 12 36 12 8 0 15 5 15 10 0 6
18 10 40 10 22 0 40 -5 40 -10 0 -6 14 -3 32 6 18 9 58 17 89 18 45 1 55 4 47
14 -8 9 -1 12 28 13 22 1 47 1 56 0 10 -1 24 1 32 6 23 12 114 9 127 -4z m203
-29 c9 -3 14 -10 11 -14 -3 -4 2 -10 10 -14 8 -3 15 0 15 7 0 6 20 -10 45 -36
45 -47 50 -66 17 -68 -11 -1 -8 -4 8 -9 15 -5 -26 -8 -107 -9 -130 -1 -133 -1
-137 22 -10 49 -5 58 33 52 25 -4 30 -3 17 3 -19 8 -19 9 3 15 15 4 21 10 15
19 -4 7 -4 10 0 6 5 -4 17 2 29 13 24 22 21 21 41 13z m237 -274 c5 0 10 -12
10 -27 2 -25 2 -24 9 7 l7 35 2 -30 c1 -20 15 -46 41 -75 22 -25 40 -49 40
-54 1 -46 88 -201 112 -201 3 0 17 -10 30 -22 39 -37 77 -44 263 -54 99 -5
191 -11 205 -13 14 -2 60 1 103 7 60 9 80 8 86 -1 5 -8 14 -5 32 11 14 12 35
28 47 35 19 10 22 10 23 -5 1 -12 4 -10 9 7 8 26 10 23 14 -23 1 -25 -25 -64
-46 -67 -10 -1 -101 -40 -107 -45 -2 -3 7 -14 20 -25 24 -20 24 -20 4 -35 -16
-13 -17 -17 -6 -24 7 -5 10 -14 7 -20 -4 -7 -2 -10 5 -9 7 2 14 -8 15 -24 3
-34 -15 -41 -91 -33 -45 5 -65 12 -73 26 -13 21 -12 22 12 13 9 -3 14 -10 11
-14 -2 -4 17 -6 43 -5 73 4 74 4 67 15 -3 5 -12 7 -20 3 -19 -7 -19 1 0 20 12
13 6 14 -52 11 -36 -2 -73 -10 -81 -17 -13 -10 -15 -9 -9 5 4 11 0 22 -11 30
-9 7 -22 22 -29 33 -6 11 -17 18 -25 16 -29 -9 -89 -1 -104 13 -9 10 -13 24
-9 36 3 11 2 20 -3 20 -17 0 -43 -37 -37 -52 4 -9 -1 -18 -9 -21 -9 -4 -16
-13 -16 -21 0 -8 -16 -23 -35 -32 -19 -9 -35 -20 -35 -26 0 -5 -12 -20 -26
-33 l-27 -25 -26 26 c-14 15 -35 30 -46 35 -11 5 -28 14 -37 21 -15 11 -23 7
-53 -22 -19 -19 -35 -29 -35 -22 0 7 -3 11 -7 10 -5 0 -16 2 -25 6 -21 9 -24
36 -5 36 8 0 22 9 32 20 18 20 18 20 -19 5 -21 -9 -35 -11 -31 -6 3 6 -1 11
-10 11 -12 0 -15 5 -11 17 8 19 -10 34 -31 26 -7 -3 -13 -14 -13 -24 0 -10 -4
-19 -9 -19 -19 0 13 -46 33 -48 29 -2 67 -24 63 -36 -5 -16 -35 -31 -44 -22
-4 5 -2 11 5 13 6 3 12 11 12 18 0 10 -13 14 -47 13 -27 -1 -59 2 -72 6 -16 6
-21 5 -17 -3 4 -6 18 -11 31 -11 13 0 27 -4 30 -10 3 -5 1 -10 -5 -10 -6 0 -9
-4 -5 -9 8 -15 -13 -24 -41 -17 l-24 6 0 353 c0 269 3 356 13 366 10 10 13 7
15 -13 2 -14 8 -26 13 -26z m-1996 -139 c3 -6 -16 -12 -42 -14 -27 -2 18 -4
100 -5 l147 -2 2 -172 c2 -202 2 -367 0 -680 l-2 -228 -107 0 c-78 0 -104 3
-96 11 6 6 41 14 77 16 43 4 65 10 63 17 -5 14 -140 11 -165 -3 -13 -8 -14
-10 -2 -11 18 0 -37 -30 -56 -30 -16 0 -31 54 -38 140 -3 36 -3 56 0 45 20
-69 24 -6 25 350 1 477 2 445 -10 459 -7 9 -7 16 0 23 22 22 6 57 -31 70 l-35
12 37 -1 c21 -1 40 1 44 5 11 10 82 8 89 -2z m751 -18 c5 -10 9 -160 10 -333
1 -173 -1 -300 -3 -282 -6 47 -20 39 -20 -13 0 -25 4 -45 9 -45 13 0 9 -28 -4
-33 -10 -4 -10 -8 -1 -14 12 -9 23 -347 11 -359 -4 -3 -13 -4 -20 -2 -7 3 -17
6 -23 6 -5 0 -15 13 -22 29 l-12 28 -1 -32 0 -31 -220 -1 -219 -1 0 540 -1
540 208 1 c114 0 225 4 247 8 22 5 43 9 46 10 4 0 11 -7 15 -16z m294 7 c0 -5
-11 -12 -24 -16 -23 -5 -24 -7 -18 -90 l5 -85 -109 3 -109 3 -3 75 c-5 122
-13 115 133 117 74 1 125 -1 125 -7z m20 -582 c-6 -40 -13 -116 -16 -168 -3
-52 -7 -108 -10 -125 -3 -19 -1 -26 5 -20 6 6 15 39 20 75 l10 65 -4 -65 c-10
-151 -18 -216 -26 -190 -7 24 -7 24 -8 -5 -2 -50 -27 -62 -140 -70 l-101 -8 0
182 0 181 95 0 c82 0 95 2 95 17 0 14 -11 15 -95 10 -86 -6 -95 -5 -95 11 0
15 12 17 100 17 l100 0 1 -130 c1 -121 2 -126 11 -65 5 36 20 131 33 212 14
81 25 153 26 160 0 10 2 10 6 1 2 -7 -1 -45 -7 -85z m-2409 35 c6 -16 11 -51
10 -80 l-2 -52 88 -4 c85 -3 84 -3 -26 -5 l-113 -2 6 35 c6 29 4 35 -10 35
-16 0 -16 1 0 13 15 11 17 18 8 33 -10 17 -11 17 -12 2 0 -10 -5 -18 -11 -18
-6 0 -8 7 -5 15 8 21 -18 30 -41 15 -16 -10 -14 -11 10 -7 20 3 25 1 17 -8 -6
-8 -5 -16 3 -24 10 -10 6 -12 -18 -9 -17 2 -29 8 -27 16 1 6 -5 12 -13 12 -8
0 -15 -7 -15 -16 0 -11 -6 -14 -22 -8 -30 9 -31 10 -23 24 4 6 13 9 21 6 7 -3
16 0 20 6 5 7 -2 9 -20 6 -14 -3 -26 -2 -26 3 0 12 85 22 131 16 29 -4 39 -2
39 9 0 24 20 15 31 -13z m-1704 -194 c540 -3 617 -5 607 -20 -3 -5 2 -9 11 -9
9 0 13 5 10 10 -6 10 43 15 140 12 179 -4 527 -2 883 3 l412 7 0 -26 0 -27
-847 1 c-467 1 -1061 4 -1320 7 -443 6 -473 7 -473 24 0 17 24 30 47 23 6 -1
245 -4 530 -5z m2063 -69 c0 -6 -237 -10 -637 -10 -351 0 -633 4 -626 8 18 11
1263 13 1263 2z m-7 -30 c4 0 7 -9 7 -20 0 -20 -5 -20 -1317 -18 l-1318 3 -3
22 -3 21 1313 -4 c722 -2 1316 -4 1321 -4z m3623 -50 c7 0 14 -7 18 -15 4 -12
0 -14 -19 -9 -13 3 -32 1 -42 -6 -16 -10 -15 -11 8 -6 19 4 29 1 33 -9 3 -9 0
-15 -9 -15 -8 0 -15 -4 -15 -9 0 -5 -16 -8 -36 -7 -22 1 -38 -4 -41 -11 -3 -7
-11 -13 -18 -13 -7 0 -16 -6 -18 -12 -3 -7 -4 1 -2 18 2 21 -1 31 -11 31 -17
0 -18 -14 -1 -20 6 -2 -4 -3 -23 -3 -19 0 -46 -3 -60 -8 -22 -8 -23 -7 -11 8
11 13 11 16 0 16 -21 1 33 28 77 39 22 5 57 17 79 25 22 9 49 14 60 11 11 -3
25 -5 31 -5z m-5096 -12 c0 -10 -229 -13 -728 -10 -295 2 -421 6 -416 13 7 12
1144 9 1144 -3z m598 -28 c873 0 882 0 882 -20 0 -20 -9 -20 -1318 -17 l-1317
2 -3 24 -4 24 439 -7 c241 -3 835 -6 1321 -6z m-696 -90 c507 -1 576 -2 571
-15 -3 -10 -15 -14 -32 -12 -14 2 -42 0 -61 -4 -19 -4 -37 -4 -40 0 -3 4 -35
5 -72 1 -37 -3 -80 -2 -95 2 -16 5 -40 3 -56 -3 -20 -8 -71 -10 -170 -5 -185
9 -965 6 -1002 -4 -5 -1 -14 -1 -20 0 -5 1 -27 2 -47 1 -31 -1 -38 3 -38 17 0
10 3 22 7 26 4 4 114 5 243 2 129 -3 495 -6 812 -6z m1572 -10 c-5 -5 -32 -12
-60 -15 -80 -9 -304 -11 -304 -3 0 5 -11 8 -25 8 -14 0 -25 -3 -25 -7 0 -5
-39 -6 -86 -3 -47 3 -88 2 -90 -2 -3 -4 -16 -2 -30 4 -20 9 -27 9 -33 0 -5 -9
-16 -10 -32 -4 -13 4 -85 7 -160 7 -102 -1 -136 2 -136 12 0 10 107 12 496 13
330 0 492 -3 485 -10z m2299 -340 c0 -41 -2 -159 -3 -262 l-1 -187 -98 0 -98
0 7 46 c10 67 0 273 -14 273 -32 -1 -51 -52 -36 -99 15 -47 21 -98 10 -81 -13
20 -14 -63 -1 -108 9 -31 9 -32 -22 -33 l-32 -2 35 -7 35 -7 -32 -2 -33 -1 0
-89 0 -89 63 -6 c34 -4 85 -9 112 -12 98 -10 101 -11 102 -52 2 -100 2 -102
23 -102 20 0 20 7 20 450 l0 450 95 0 c77 0 95 -3 95 -15 0 -8 6 -12 14 -9 7
3 17 -3 20 -13 9 -21 8 -558 0 -618 -3 -23 -2 -35 3 -28 5 7 10 45 12 85 1 40
5 75 8 78 3 3 2 -74 -2 -170 l-7 -175 32 -12 c28 -11 69 -10 168 2 31 4 32 3
17 -18 -8 -12 -15 -29 -15 -38 0 -9 -7 -22 -15 -29 -9 -8 -13 -21 -9 -36 9
-35 -11 -55 -42 -44 -13 5 -47 8 -75 7 l-50 -2 2 45 c3 70 0 82 -13 74 -17
-11 -48 -12 -48 -3 0 5 -11 11 -25 15 -14 3 -25 14 -26 23 0 13 -2 13 -6 1
-10 -24 -31 -41 -50 -41 -113 4 -172 9 -193 18 -30 13 -82 -11 -73 -34 4 -9 0
-11 -11 -7 -9 3 -16 10 -16 15 0 11 -68 11 -95 -1 -21 -8 -20 -9 38 -27 46
-14 35 -28 -22 -29 -38 -1 -58 -6 -66 -17 -15 -21 -45 -22 -45 -2 0 8 5 15 11
15 5 0 8 4 4 10 -3 5 3 18 13 28 19 19 19 20 -15 36 -40 19 -54 20 -48 4 3 -7
-7 -18 -21 -25 -22 -10 -25 -10 -20 3 3 7 2 14 -2 14 -22 0 -89 -24 -103 -36
-15 -13 -17 -13 -23 3 -4 10 -2 19 4 21 19 7 -9 30 -30 25 -10 -3 -27 0 -37 7
-16 10 -14 11 9 6 15 -4 30 -2 33 4 3 5 35 10 71 10 36 0 64 4 64 10 0 6 7 10
15 10 8 0 15 5 15 10 0 6 -7 10 -15 10 -12 0 -15 14 -17 63 l-2 62 -3 -57 c-4
-56 -23 -84 -23 -33 0 15 -6 25 -14 25 -7 0 -16 11 -18 25 -4 19 -1 25 13 25
12 0 19 7 19 20 0 10 8 27 18 37 17 16 19 39 21 236 l3 217 -35 0 c-34 0 -35
1 -38 43 -2 23 -2 70 -1 104 l4 63 171 3 c95 1 210 3 257 2 l85 0 -2 -75z
m-3323 -5 l0 -75 -162 -2 c-230 -2 -235 -2 -235 -21 0 -9 20 -14 66 -15 74 -3
68 -1 73 -27 3 -18 -2 -20 -45 -17 -40 3 -46 1 -41 -12 3 -9 10 -13 15 -10 6
3 9 -46 8 -124 -1 -129 -1 -129 -22 -119 -21 10 -22 17 -22 144 l0 134 -25 5
c-14 3 -36 10 -50 14 -22 7 -22 9 -4 9 11 1 21 7 21 14 0 11 -9 11 -44 4 -23
-6 -46 -7 -50 -3 -5 4 -9 42 -10 84 l-2 77 177 5 c97 3 216 7 265 8 l87 2 0
-75z m481 25 l2 -45 7 35 7 35 3 -30 2 -30 8 30 c5 19 8 -8 8 -78 0 -94 -2
-108 -18 -117 -24 -13 -33 -13 -25 0 3 6 -4 14 -17 19 l-23 10 23 0 c18 1 22
7 22 36 l0 35 -225 0 -225 0 0 68 c0 38 3 72 8 76 4 5 105 6 224 5 l218 -4 1
-45z m1099 -85 c0 -133 0 -135 -22 -135 -13 0 -63 -2 -113 -4 -49 -2 -118 -2
-152 1 l-63 6 0 133 0 134 175 0 175 0 0 -135z m90 -140 c0 -268 0 -275 -20
-275 -18 0 -20 -7 -20 -70 0 -63 2 -70 20 -70 13 0 20 -6 19 -17 0 -10 -3 -13
-5 -6 -8 20 -34 3 -34 -22 0 -42 -19 -36 -25 7 -4 24 -4 178 -1 343 3 165 5
319 5 343 1 40 2 42 31 42 l30 0 0 -275z m550 170 l0 -104 -51 -7 c-29 -4 -45
-10 -39 -14 7 -4 9 -13 6 -19 -10 -16 53 -93 70 -87 11 4 14 -7 14 -51 l0 -56
-26 28 c-23 25 -27 26 -41 12 -14 -13 -15 -26 -7 -74 8 -52 12 -58 34 -60 62
-3 36 -7 -80 -13 l-125 -5 -3 -52 c-3 -44 -1 -52 12 -47 11 4 16 0 16 -15 0
-12 6 -21 15 -21 8 0 15 -3 15 -8 0 -13 -40 -43 -50 -37 -5 3 -9 -60 -9 -140
-1 -122 2 -145 14 -145 11 0 15 -11 15 -40 0 -33 -3 -40 -19 -40 -31 0 -45
112 -37 295 3 82 6 181 6 218 0 43 4 66 10 62 12 -7 15 44 11 171 -2 58 1 100
9 114 8 15 8 20 1 16 -7 -5 -11 6 -12 31 0 21 -2 73 -5 116 l-4 77 130 0 130
0 0 -105z m550 23 c0 -46 3 -93 6 -105 l6 -23 -198 0 c-117 0 -193 -4 -185 -9
7 -5 11 -13 8 -18 -4 -6 9 -27 28 -47 19 -21 37 -46 40 -56 7 -21 -14 -72 -26
-64 -11 6 -23 -41 -14 -55 3 -6 13 -11 21 -11 10 0 14 -12 14 -40 l0 -40 -108
0 -107 0 0 134 c0 113 3 137 17 153 17 18 17 20 -2 41 -17 18 -20 35 -20 122
l0 100 260 0 260 0 0 -82z m-3330 -9 l0 -81 -77 7 c-43 4 -122 13 -175 21 -54
8 -100 14 -102 14 -3 0 -1 -138 4 -240 1 -19 2 -133 1 -252 -1 -210 -1 -217
-22 -228 -24 -13 -29 -10 -32 19 -1 11 -6 21 -12 21 -5 0 -4 4 4 9 12 8 14 52
12 264 -2 238 -1 256 16 259 15 4 13 7 -10 18 -29 14 -29 15 -25 94 2 44 8 81
13 83 6 2 10 19 9 38 l-2 35 199 0 199 0 0 -81z m-82 -91 c-3 -7 5 -17 16 -23
17 -8 20 -19 19 -60 -2 -39 0 -44 7 -25 6 18 8 6 9 -47 l1 -73 -47 18 -48 18
-5 74 c-6 90 4 130 32 130 11 0 18 -5 16 -12z m1162 -378 c0 -193 -4 -300 -10
-300 -5 0 -10 11 -10 25 0 14 -5 25 -11 25 -6 0 -8 -9 -4 -20 7 -24 -7 -26
-29 -5 -8 8 -23 15 -34 15 -11 0 -36 7 -56 15 -27 12 -35 12 -34 3 2 -10 -19
-14 -77 -16 -104 -4 -127 2 -123 31 3 25 29 30 36 7 5 -13 3 -13 -11 -1 -18
14 -20 12 -11 -13 5 -12 21 -16 71 -16 35 0 73 5 84 11 19 10 19 10 -1 36 -11
14 -20 32 -20 39 0 11 -18 14 -74 14 -67 0 -75 2 -81 21 -5 14 0 26 16 40 26
23 36 24 54 5 9 -9 30 -13 57 -11 55 4 57 5 33 15 -19 8 -19 9 3 9 18 1 21 5
17 24 -5 20 -2 22 39 23 43 1 45 -1 40 -23 -6 -22 -3 -23 42 -25 l49 -1 -50
-7 c-27 -4 -43 -8 -35 -10 8 -2 20 -4 25 -5 6 -2 18 -3 27 -4 10 0 26 -11 38
-23 l20 -22 1 80 c1 43 1 143 1 222 -1 87 2 142 8 142 6 0 10 -111 10 -300z
m-514 191 c5 -23 6 -23 19 -5 7 11 15 31 18 44 4 24 4 24 6 -3 1 -23 5 -27 20
-22 24 7 73 -4 65 -16 -8 -14 13 -10 28 5 8 7 27 14 43 14 25 0 27 -2 12 -13
-13 -9 -7 -11 34 -9 28 2 47 -1 44 -6 -3 -5 -1 -11 3 -14 14 -8 1 -60 -17 -71
-17 -11 -83 -16 -77 -6 2 3 -18 6 -46 6 -27 0 -52 3 -55 8 -2 4 -10 4 -16 0
-23 -14 -42 -12 -55 5 -11 15 -14 15 -22 2 -5 -8 -10 -30 -10 -47 0 -23 -5
-33 -15 -33 -8 0 -15 -6 -15 -14 0 -8 -11 -17 -25 -20 -15 -4 -25 -14 -25 -24
0 -19 -36 -46 -50 -37 -5 3 -11 1 -15 -5 -3 -5 1 -10 10 -10 12 0 15 -6 10
-20 -5 -14 -2 -20 10 -20 9 0 14 4 10 9 -3 5 -1 12 5 16 5 3 10 -1 10 -9 0 -9
9 -16 20 -16 11 0 20 5 20 10 0 13 20 9 37 -7 23 -21 14 -33 -27 -33 l-40 0 0
-51 c0 -54 -5 -52 60 -33 11 3 20 1 20 -4 0 -9 -54 -22 -92 -22 -17 0 -20 33
-4 58 4 7 1 15 -8 18 -9 3 -16 15 -16 26 0 18 -1 18 -16 4 -8 -9 -17 -16 -19
-16 -2 0 -4 25 -4 55 0 30 -3 60 -7 66 -5 9 -1 10 14 7 31 -8 27 -1 -9 17 -17
9 -37 14 -45 11 -17 -6 -20 29 -3 39 16 10 57 -3 61 -20 2 -10 7 -7 15 10 10
23 9 25 -14 25 -13 0 -21 4 -18 10 3 6 -2 10 -13 10 -10 0 -27 10 -38 22 -10
12 -13 18 -6 14 13 -8 17 15 5 27 -3 4 -8 20 -9 36 -3 22 1 30 17 34 12 3 18
10 14 16 -4 7 6 14 24 17 18 4 28 11 24 17 -4 6 0 8 10 4 10 -4 17 -2 17 5 0
7 5 6 15 -2 11 -9 19 -10 26 -3 14 14 49 4 49 -13 0 -30 20 -12 22 19 l1 32 4
-35 c2 -19 6 -46 9 -59z m1544 -326 l0 -355 -145 0 -146 0 3 133 3 132 45 6
45 6 -45 3 c-26 1 -35 5 -22 7 12 2 22 11 22 19 0 20 59 19 67 -2 3 -9 0 -20
-8 -25 -9 -6 4 -8 36 -8 28 1 42 3 33 6 -19 5 -25 43 -8 43 6 0 10 27 10 61 0
42 3 58 11 53 8 -5 10 31 6 130 -3 81 -2 136 4 136 5 0 9 -37 10 -82 0 -46 2
-139 3 -208 1 -77 -2 -128 -9 -132 -6 -5 -3 -8 8 -8 16 0 17 17 17 220 l0 220
30 0 30 0 0 -355z m-2144 260 c8 -10 12 -64 13 -143 l2 -127 -70 -28 c-80 -30
-81 -31 -81 -17 0 6 6 10 14 10 8 0 16 16 20 38 3 20 9 52 12 70 5 27 4 31
-11 26 -14 -6 -15 -2 -9 31 4 21 7 56 8 79 1 22 3 58 4 78 l2 37 42 -19 c23
-10 48 -26 54 -35z m5007 13 c-13 -6 -23 -15 -23 -20 0 -4 -6 -8 -14 -8 -8 0
-16 -7 -20 -15 -3 -8 -15 -15 -26 -15 -18 0 -20 -6 -20 -82 0 -81 0 -82 -19
-61 -10 11 -21 29 -23 39 -4 16 -7 14 -17 -10 -9 -22 -15 -26 -23 -18 -9 9 -8
18 2 36 10 20 11 28 1 40 -11 13 -15 13 -27 1 -8 -7 -14 -18 -14 -23 0 -15
-32 -24 -44 -12 -5 5 -10 31 -10 57 l-1 48 101 1 c94 1 102 3 127 28 14 14 36
26 49 25 l23 0 -22 -11z m-1953 -269 c0 -5 24 -9 53 -9 84 0 95 -19 12 -21
-61 -2 -65 -3 -30 -9 22 -4 31 -8 19 -9 -20 -1 -21 -4 -10 -42 10 -38 12 -40
41 -35 61 13 70 13 82 4 7 -6 20 -8 28 -4 9 3 15 0 15 -9 0 -13 -32 -15 -210
-15 -133 0 -210 4 -210 10 0 6 25 10 55 10 54 0 55 1 49 25 -5 22 -3 25 20 25
18 0 30 -8 38 -25 7 -16 19 -25 34 -25 18 0 23 7 26 36 3 26 0 38 -11 43 -9 3
-17 11 -17 16 -1 6 -5 20 -9 32 -5 18 -3 22 9 17 9 -3 16 -10 16 -15z m-4417
-157 c-2 -9 19 -9 114 3 20 2 33 -1 37 -10 6 -16 -31 -206 -42 -217 -4 -3 -38
-8 -76 -9 -86 -3 -116 -8 -116 -21 0 -6 33 -7 88 -3 l87 7 -25 -25 c-25 -25
-29 -26 -205 -31 -99 -3 -169 -1 -155 3 14 4 54 6 90 3 36 -2 76 1 90 6 l25
11 -27 0 c-15 1 -30 6 -33 11 -3 6 -18 10 -33 10 -23 -1 -25 -2 -9 -11 9 -5
22 -7 27 -4 6 3 10 1 10 -4 0 -14 -87 -14 -95 -1 -4 6 -3 9 2 8 4 -1 26 11 48
27 39 29 40 31 22 48 -10 10 -16 25 -13 33 3 8 1 14 -4 14 -6 0 -10 7 -10 15
0 8 4 15 10 15 5 0 7 7 3 16 -4 11 -9 12 -16 5 -18 -18 -27 -12 -27 19 0 17 5
30 10 30 6 0 10 -6 10 -13 0 -7 9 -13 20 -14 27 -2 25 6 -12 44 -33 34 -29 44
6 18 27 -21 36 -19 37 8 0 12 3 16 6 10 3 -9 28 -13 74 -13 59 0 68 2 62 16
-4 12 -2 15 8 12 8 -3 13 -10 12 -16z m771 -8 c13 -5 16 -25 16 -115 0 -78 -3
-109 -12 -109 -6 0 -4 -6 6 -13 12 -9 15 -18 9 -32 -7 -18 -18 -20 -103 -21
-52 -1 -138 -4 -190 -8 l-95 -6 35 32 34 32 4 110 c2 61 6 113 8 115 2 3 62 8
132 11 70 4 130 8 134 8 3 1 13 -1 22 -4z m2108 -22 c9 -15 23 -55 31 -89 13
-58 13 -62 -4 -66 -16 -4 -17 -2 -8 14 5 11 7 25 2 32 -4 7 -10 -1 -14 -23 -5
-23 -3 -37 4 -42 7 -4 -6 -5 -28 -2 -29 4 -36 3 -25 -5 11 -7 2 -11 -35 -14
-31 -2 -16 -4 41 -5 49 -1 95 3 100 8 13 13 94 21 94 10 0 -5 -4 -11 -10 -15
-5 -3 -6 -13 -3 -21 5 -13 -2 -15 -35 -13 -23 2 -44 0 -48 -4 -4 -4 5 -7 20
-7 18 0 25 -4 20 -11 -10 -17 -171 -5 -209 15 -16 9 -36 16 -44 16 -9 0 -10 4
-3 13 11 14 -10 41 -23 29 -5 -4 -5 3 -2 16 3 12 1 20 -3 17 -5 -3 -12 0 -16
6 -3 6 0 15 7 20 9 6 10 9 2 9 -10 0 -26 30 -28 52 0 3 -3 10 -7 14 -13 12 -9
24 7 24 13 0 13 2 3 14 -10 10 -15 11 -21 2 -6 -7 -7 -6 -4 4 4 18 44 25 147
28 73 2 76 1 92 -26z m-1408 10 c2 -4 13 -49 23 -100 13 -69 22 -94 36 -98 9
-3 17 -9 17 -14 0 -5 25 -17 55 -25 30 -9 55 -18 55 -21 0 -2 -27 -4 -61 -4
-49 0 -60 3 -56 14 3 8 -2 20 -11 28 -11 9 -14 10 -8 1 5 -9 0 -13 -14 -13
-15 0 -20 -5 -17 -14 7 -19 -8 -24 -95 -32 -61 -5 -81 -3 -121 15 -40 17 -47
24 -42 41 4 11 2 35 -4 53 -6 18 -13 51 -16 72 -2 22 -7 52 -11 67 -5 23 -3
27 22 31 52 8 243 7 248 -1z m2615 -27 c35 -17 73 -62 90 -104 13 -30 31 -42
31 -21 0 6 7 10 15 10 20 0 19 -17 -1 -28 -10 -6 51 -7 157 -4 101 2 180 9
189 15 12 9 13 9 3 -3 -7 -8 -13 -31 -13 -52 0 -21 -4 -38 -9 -38 -24 0 -38
13 -34 31 3 12 0 19 -8 20 -8 0 -32 2 -54 4 -22 1 -91 3 -153 4 -73 1 -111 5
-107 11 3 6 1 10 -5 10 -6 0 -15 12 -21 28 -6 15 -20 41 -32 58 -20 31 -23 32
-77 27 -44 -4 -58 -2 -70 11 -12 16 -11 17 13 11 21 -6 27 -4 27 9 0 20 22 20
59 1z m509 3 c-3 -7 -20 -18 -38 -24 -31 -10 -32 -12 -14 -21 10 -6 31 -13 45
-17 36 -8 45 -33 13 -39 -13 -2 -24 -1 -24 2 0 9 -104 -3 -163 -19 -26 -7 -51
-9 -55 -6 -4 4 3 25 15 47 12 21 17 39 12 39 -6 0 -7 5 -4 10 3 6 -4 10 -16
10 -15 0 -20 3 -13 10 5 5 54 11 109 13 55 1 108 4 118 5 11 1 17 -3 15 -10z
m1452 -25 c-1 -16 -27 -42 -35 -35 -5 4 -5 1 -1 -6 4 -7 0 -24 -8 -37 -9 -14
-13 -25 -8 -25 4 0 15 12 24 28 32 53 53 65 91 53 19 -6 83 -16 143 -21 138
-11 338 -33 343 -36 2 -2 -11 -18 -28 -36 -17 -18 -31 -36 -31 -40 0 -5 -11
-8 -25 -8 -15 0 -25 6 -25 14 0 7 -9 16 -20 19 -17 4 -19 11 -14 31 6 25 5 25
-22 15 -36 -12 -84 -74 -85 -108 -1 -14 -2 -30 -4 -36 -1 -5 -3 -16 -3 -22 -2
-9 -27 -13 -92 -13 -83 0 -90 -1 -90 -20 0 -11 -1 -20 -3 -20 -1 0 -45 11 -97
24 -66 17 -96 29 -98 40 -4 17 -22 22 -22 6 0 -13 -57 -13 -65 0 -3 5 -23 17
-43 27 -20 9 -40 22 -44 27 -6 8 -10 8 -15 0 -5 -6 -19 -17 -31 -23 -21 -11
-27 -10 -46 8 -28 27 -92 49 -136 46 -19 0 -96 -2 -170 -4 -74 -1 -129 -5
-123 -8 10 -3 10 -8 -1 -19 -8 -8 -20 -14 -26 -14 -6 0 -18 6 -26 14 -11 11
-11 16 -1 19 15 6 -82 9 -350 9 -111 0 -207 -3 -213 -7 -5 -3 -10 -15 -10 -26
0 -37 -26 -19 -36 26 -10 44 -10 44 8 25 22 -24 32 -26 24 -5 -4 12 4 15 39
15 43 0 45 1 45 28 0 30 44 82 57 68 4 -4 -4 -28 -18 -54 l-25 -47 485 0 c429
0 494 -2 558 -17 77 -19 193 -24 193 -9 0 5 -12 11 -27 13 -24 3 -28 8 -31 39
-4 49 30 89 84 99 55 11 54 11 54 3z m-3970 -123 c0 -5 24 -10 53 -10 52 0
117 -17 184 -46 17 -8 38 -14 46 -14 9 0 19 -4 22 -10 4 -6 -15 -10 -49 -10
-53 0 -62 5 -57 33 2 13 -42 4 -46 -10 -3 -7 4 -9 19 -6 16 4 20 3 13 -5 -5
-6 -42 -16 -81 -23 -65 -10 -77 -10 -138 11 -49 16 -66 26 -66 40 0 10 6 21
13 23 6 3 3 6 -8 7 -14 1 -10 5 15 15 42 16 80 19 80 5z m1218 -132 c10 -10
15 -10 22 1 7 12 11 11 25 -3 16 -16 19 -16 35 -1 13 12 20 13 25 5 4 -7 18
-9 31 -6 16 4 26 1 33 -11 10 -17 10 -17 11 0 0 21 36 23 44 2 4 -12 11 -13
23 -7 23 12 43 5 44 -16 0 -13 3 -12 11 5 10 20 11 21 28 5 10 -9 25 -32 34
-49 25 -50 28 -39 6 19 -21 56 -20 64 7 53 12 -5 14 -9 6 -12 -21 -8 -15 -22
7 -16 10 3 18 8 17 12 -4 11 8 14 31 7 12 -4 22 -13 22 -20 0 -18 27 -52 35
-44 4 3 -1 20 -10 37 -16 32 -7 42 15 15 25 -29 47 -34 82 -20 39 17 98 8 128
-19 13 -12 33 -16 77 -13 43 2 67 -2 86 -15 14 -9 30 -17 34 -17 4 0 0 5 -9
11 -31 18 -19 24 44 23 53 0 63 -3 71 -22 6 -12 26 -32 45 -44 33 -20 49 -21
266 -23 127 -1 241 0 254 2 18 4 22 12 22 44 0 33 3 39 21 39 14 0 19 -5 16
-14 -4 -9 16 -22 64 -41 68 -26 76 -27 332 -32 217 -5 260 -3 250 8 -7 7 -13
27 -13 44 0 29 2 30 40 31 37 1 43 -3 80 -52 22 -29 40 -56 40 -59 0 -3 -9 -5
-20 -5 -11 0 -20 -4 -20 -10 0 -5 -10 -10 -22 -11 -13 0 5 -9 39 -20 46 -14
61 -23 57 -34 -6 -14 21 -20 75 -17 43 2 137 -22 188 -48 43 -22 75 -31 120
-33 34 -1 59 1 56 6 -2 4 -15 7 -29 7 -26 0 -110 36 -120 51 -3 5 2 6 10 3 9
-3 16 -4 16 -1 0 3 -39 17 -87 32 -49 15 -92 32 -98 39 -5 7 -20 19 -32 27
l-23 16 25 23 25 23 77 -18 c43 -10 83 -21 88 -25 14 -11 166 -47 250 -60 39
-6 93 -17 120 -26 152 -45 164 -48 145 -35 -11 8 1 10 44 9 38 -1 52 -4 40 -9
-17 -7 -17 -8 3 -8 12 -1 25 -5 28 -11 4 -6 -7 -8 -27 -5 -26 4 -23 1 17 -14
l50 -19 -58 -1 c-36 -1 -56 3 -52 9 3 6 -1 10 -9 10 -20 0 -20 -5 -1 -24 10
-10 27 -14 48 -11 l32 5 -30 -10 c-16 -6 -46 -9 -65 -6 -35 5 -35 5 -10 -10
l25 -15 -25 6 c-14 4 -33 9 -42 11 -10 3 -18 1 -18 -5 0 -6 6 -11 14 -11 7 0
29 -7 47 -15 l34 -15 -42 5 c-24 3 -74 16 -113 29 -39 14 -68 21 -66 17 3 -4
33 -18 66 -30 33 -12 60 -26 60 -31 0 -5 9 -12 21 -15 11 -4 19 -9 16 -11 -2
-2 -64 17 -138 42 -109 37 -150 46 -219 48 -47 2 -74 2 -60 -1 42 -7 80 -25
74 -35 -4 -5 2 -9 12 -7 11 1 30 -3 44 -9 14 -6 19 -11 12 -11 -7 -1 -10 -6
-7 -11 4 -6 -11 -10 -37 -9 -33 0 -38 2 -23 9 14 6 -2 9 -51 9 -64 1 -72 -1
-77 -19 -4 -14 0 -20 11 -21 15 -1 15 -2 0 -6 -25 -6 -22 -20 8 -48 15 -14 23
-25 17 -25 -5 0 -13 4 -19 9 -5 5 -34 18 -64 29 -48 18 -117 48 -255 112 -97
44 -241 83 -360 96 -57 6 -807 13 -1532 14 -336 0 -343 0 -343 20 0 20 19 23
32 5 5 -6 8 -5 8 3 0 7 16 12 43 13 35 0 38 2 20 9 -13 5 -23 12 -23 15 0 4
10 3 23 0 17 -5 18 -4 7 4 -8 5 -11 13 -7 18 5 4 16 -3 26 -16 15 -20 21 -22
37 -12 14 9 15 11 2 7 -9 -2 -19 2 -22 10 -5 12 18 14 145 14 83 0 159 -5 169
-10 16 -8 18 -8 14 5 -5 12 -27 15 -108 16 -55 1 -135 3 -176 6 -95 5 -79 5
-197 0 l-103 -5 -1 27 -1 26 -7 -26 -6 -26 -247 -2 c-267 -2 -268 -2 -228 49
17 21 21 23 30 10 8 -13 10 -13 10 -1 0 11 3 10 13 -3 12 -16 15 -17 20 -3 3
8 14 14 24 13 10 -2 22 2 26 8 5 6 6 -2 2 -19 l-6 -30 21 30 c11 17 20 25 20
18 0 -7 7 -10 15 -7 8 4 12 11 8 17 -3 6 -1 7 5 3 7 -4 12 -15 12 -24 1 -22
40 77 40 101 0 9 4 17 9 17 5 0 8 8 7 18 -1 13 6 17 27 15 15 -1 27 2 27 8 0
13 24 11 38 -3z m-1538 -59 c-11 -8 -2 -9 35 -5 28 2 61 7 75 10 14 4 19 4 13
0 -24 -11 -13 -24 18 -24 28 0 30 -2 18 -17 -13 -15 -12 -15 8 -5 12 7 30 12
40 12 17 -1 16 -2 -2 -16 -17 -13 -18 -16 -5 -25 8 -5 23 -7 32 -5 10 2 21 0
24 -5 3 -5 16 -6 30 -3 14 4 24 2 24 -4 0 -7 11 -8 32 -1 22 6 34 6 36 -1 2
-5 10 -10 18 -10 9 0 12 -4 9 -10 -9 -14 8 -13 38 3 15 8 52 12 91 11 42 -2
76 2 94 12 15 7 34 14 42 13 10 0 11 -2 3 -6 -20 -8 -15 -23 7 -23 26 0 72 23
91 46 13 16 12 16 -11 5 -24 -11 -24 -11 -6 3 11 9 27 17 35 17 100 9 142 1
103 -20 -12 -7 -22 -17 -22 -22 0 -6 16 3 35 20 20 17 40 31 45 31 17 0 11
-23 -12 -47 -25 -26 -15 -29 46 -12 67 19 76 19 76 2 0 -12 3 -13 15 -3 16 13
35 6 35 -13 0 -7 9 -13 20 -13 11 0 20 5 20 10 0 5 3 6 7 3 3 -4 12 -2 20 4
10 9 9 5 -2 -17 -8 -16 -15 -35 -15 -41 0 -10 -85 -13 -387 -14 -214 -1 -378
-4 -365 -6 19 -4 21 -7 11 -19 -15 -18 -10 -18 36 2 48 20 149 16 132 -5 -10
-12 -9 -13 8 -3 20 10 325 22 325 12 0 -3 -7 -14 -15 -24 -23 -30 -18 -39 9
-19 13 10 22 21 20 25 -2 3 10 11 28 17 41 15 128 14 128 0 0 -8 4 -8 13 -1 6
6 45 10 85 11 55 0 72 -3 72 -13 0 -8 -6 -17 -12 -20 -7 -3 -4 -4 7 -3 13 2
19 9 17 21 -3 16 7 17 145 15 81 -1 154 -4 161 -7 22 -8 14 -33 -10 -31 -39 3
-102 -1 -96 -6 4 -4 178 -14 275 -15 11 0 24 -7 27 -15 5 -13 -19 -15 -170
-15 l-176 0 4 30 c2 16 -1 31 -7 33 -7 3 -9 -7 -7 -28 l4 -33 -76 -4 c-56 -2
-76 0 -76 10 0 6 -5 12 -11 12 -5 0 -8 -4 -5 -9 8 -12 -114 -20 -342 -21 -138
0 -202 3 -197 10 3 5 -1 10 -9 10 -8 0 -17 -4 -20 -8 -3 -5 -15 -8 -28 -6 -13
1 -74 3 -135 3 -101 1 -113 3 -113 19 -1 16 -1 16 -14 0 -17 -22 -27 -23 -19
-2 5 13 2 15 -18 9 -13 -5 -31 -8 -39 -8 -8 0 -18 -4 -21 -10 -5 -6 -18 -6
-38 1 -20 7 -29 8 -25 1 6 -11 -45 -11 -154 -2 -77 7 -73 15 10 20 35 3 67 8
71 12 8 8 -166 5 -295 -4 -43 -3 -68 -1 -68 5 0 5 5 10 12 10 6 0 9 2 6 5 -3
3 -18 0 -34 -6 -16 -6 -84 -13 -152 -14 -67 -2 -128 -8 -135 -14 -14 -11 -57
-4 -57 10 0 5 14 9 31 9 27 0 30 2 19 15 -7 8 -20 15 -29 15 -13 0 -13 -2 -2
-9 10 -6 1 -11 -28 -16 -35 -6 -41 -10 -36 -26 5 -13 2 -19 -10 -19 -9 0 -14
4 -10 9 3 5 0 13 -5 16 -14 9 -140 -16 -140 -27 0 -11 -68 -10 -75 2 -4 6 7 8
27 5 26 -4 29 -3 13 4 -16 7 -8 10 33 10 39 1 52 5 52 16 0 8 -9 15 -20 15
-11 0 -20 -6 -20 -12 0 -9 -2 -10 -8 -2 -4 7 -16 14 -27 17 -11 3 16 4 60 3
44 -2 87 -7 96 -10 9 -4 32 0 50 8 l34 16 -40 -5 c-22 -2 -71 0 -110 4 -60 7
-49 8 85 9 113 1 151 -1 140 -9 -12 -8 -9 -9 10 -3 14 4 51 8 84 10 32 1 61 6
65 9 3 4 -367 5 -824 2 -700 -4 -822 -2 -780 9 34 9 62 10 89 4 22 -5 49 -5
62 0 15 6 26 5 30 -1 8 -13 68 -3 104 17 24 14 24 14 -15 9 -37 -5 -38 -4 -10
5 17 6 41 8 55 5 14 -3 75 3 135 14 61 10 112 15 116 10 3 -5 36 -2 75 6 38 8
99 15 136 15 102 0 198 26 183 50 -2 3 40 5 93 6 54 0 117 4 142 8 43 7 44 7
20 -8 -14 -8 -32 -13 -41 -10 -9 2 -19 -2 -22 -10 -3 -8 -14 -16 -24 -19 -10
-2 -2 -2 17 1 101 13 177 6 200 -18 3 -3 16 -6 30 -6 14 -1 41 -2 60 -4 19 -1
62 0 95 4 33 4 78 7 100 6 70 -1 185 26 209 50 13 11 36 25 52 30 40 12 52 12
34 -1z m2353 -506 l67 -6 0 -81 c0 -131 3 -127 -102 -123 -68 3 -93 1 -104
-10 -8 -8 -14 -11 -14 -6 0 4 -5 1 -10 -7 -7 -10 -10 17 -10 85 0 55 -3 109
-6 121 -4 17 1 22 33 31 21 6 47 9 58 7 11 -3 50 -7 88 -11z m287 -5 c30 -6
117 -13 193 -15 l137 -4 0 -94 c0 -72 -4 -97 -16 -109 -8 -9 -19 -14 -24 -11
-29 18 -345 41 -355 26 -5 -9 -26 -5 -82 19 -35 15 -40 33 -42 138 -1 48 1 52
21 52 13 0 30 5 38 10 8 6 29 8 45 5 17 -4 55 -11 85 -17z m-1234 -105 c-4
-65 -7 -160 -9 -210 -1 -51 -6 -93 -10 -93 -5 0 -5 4 -2 10 3 6 2 10 -4 10 -5
0 -11 -6 -14 -12 -3 -7 -5 83 -6 200 l-1 212 26 0 26 0 -6 -117z m343 -31 c0
-82 -4 -154 -8 -160 -4 -6 -57 -12 -136 -14 l-130 -3 -3 163 -2 162 140 0 141
0 -2 -148z m1769 49 c-2 -76 -6 -96 -18 -96 -16 0 -53 92 -45 113 2 6 3 12 1
12 -3 0 -11 3 -20 6 -10 4 -20 -6 -32 -33 -9 -21 -16 -42 -15 -46 1 -5 -6 -7
-16 -5 -10 2 -18 10 -19 18 0 8 -6 35 -13 59 -19 65 -15 68 88 68 l92 -1 -3
-95z m-2840 -86 c1 -38 0 -94 -3 -122 -6 -47 -9 -53 -30 -53 -13 0 -34 4 -47
9 -13 4 -36 11 -53 15 l-30 8 27 -21 c14 -12 32 -21 40 -21 9 -1 8 -3 -3 -10
-9 -5 -65 -12 -125 -15 -60 -3 -133 -8 -161 -10 l-53 -5 0 55 c0 50 2 55 23
56 l22 0 -22 9 c-16 6 -23 18 -23 35 0 25 3 26 33 20 l32 -6 -30 17 c-42 23
-42 24 -20 37 11 6 40 10 64 8 29 -2 41 1 37 8 -5 7 3 11 19 11 15 0 36 5 47
11 14 8 27 8 43 1 18 -9 25 -8 29 4 4 10 13 13 26 9 11 -3 20 -2 20 4 0 10 53
19 105 17 l30 -1 3 -70z m-485 -25 c4 0 7 -40 7 -89 l0 -89 -37 -6 c-21 -4
-87 -4 -148 -1 -210 10 -287 52 -197 108 38 24 115 50 192 66 70 15 92 20 97
25 2 2 21 0 41 -5 20 -5 40 -9 45 -9z"/>
<path d="M5080 3191 c-8 -10 -58 -64 -110 -120 -72 -78 -95 -109 -96 -132 -2
-38 -3 -39 -52 -41 -41 -1 -86 -18 -49 -18 9 0 17 -6 17 -13 0 -7 9 -20 20
-30 11 -9 20 -12 20 -7 0 6 9 1 20 -10 12 -12 20 -33 20 -55 0 -19 2 -35 5
-35 3 0 18 12 32 26 17 18 22 28 14 33 -8 5 -5 14 9 29 20 21 30 27 30 18 0
-3 -7 -12 -16 -21 -21 -21 -12 -30 15 -15 21 11 93 79 121 115 12 16 9 15 -15
-3 -58 -44 -76 -55 -81 -50 -2 3 16 25 40 49 25 23 43 45 40 48 -2 3 -22 -13
-44 -34 -48 -47 -62 -40 -24 12 l29 38 -39 -32 c-41 -33 -61 -37 -34 -6 28 34
32 49 7 28 -13 -11 -27 -24 -31 -30 -5 -6 -8 -6 -8 2 0 6 18 33 40 58 57 66
49 68 -16 5 -83 -81 -40 -17 69 103 50 54 88 99 86 102 -3 2 -11 -4 -19 -14z"/>
<path d="M5870 1646 c0 -164 4 -256 10 -256 6 0 11 19 11 43 1 23 2 47 4 52 1
6 3 25 3 43 2 29 4 32 27 26 14 -3 25 -2 25 4 0 12 -29 24 -40 17 -5 -3 -11
-1 -15 5 -4 6 6 10 24 10 17 0 31 5 31 10 0 6 -7 10 -16 10 -16 0 -44 23 -44
35 0 4 11 5 24 3 16 -3 27 0 30 9 12 29 6 43 -18 43 -31 0 -35 12 -37 110 -1
44 -6 83 -10 86 -5 3 -9 -110 -9 -250z"/>
<path d="M7356 2354 c6 -3 9 -15 7 -29 -5 -21 -1 -24 43 -30 73 -10 75 -13 12
-14 -57 -1 -58 -1 -58 -30 0 -28 3 -30 43 -34 l42 -4 -42 -1 c-38 -2 -43 -5
-43 -26 0 -20 6 -24 46 -30 86 -11 94 -9 94 23 0 16 -6 32 -12 34 -10 4 -10 6
0 6 20 1 16 127 -4 135 -18 7 -145 7 -128 0z"/>
</g>
</svg>
